Fly_normalized_Motion_pl01
version=1
nRows=25
nColumns=43
inDegrees=yes
endheader
time		pelvis_tilt		pelvis_list		pelvis_rotation		pelvis_tx		pelvis_ty		pelvis_tz		hip_flexion_r		hip_adduction_r		hip_rotation_r		knee_angle_r		ankle_angle_r		subtalar_angle_r		mtp_angle_r		hip_flexion_l		hip_adduction_l		hip_rotation_l		knee_angle_l		ankle_angle_l		subtalar_angle_l		mtp_angle_l		lumbar_extension		lumbar_bending		lumbar_rotation		neck_flexion		neck_lateral_bending		neck_rotation		arm_flex_r		arm_add_r		arm_rot_r		elbow_flex_r		pro_sup_r		wrist_flex_r		wrist_dev_r		hand_finger_flex_r		arm_flex_l		arm_add_l		arm_rot_l		elbow_flex_l		pro_sup_l		wrist_flex_l		wrist_dev_l		hand_finger_flex_l		
4.022500		2.282937		-15.355113		94.763548		0.001332		1.650869		1.108345		60.562251		-0.812481		-6.578878		-82.688705		-10.091138		7.675262		36.362091		61.617572		-10.166126		-2.635293		-85.522369		-3.336703		-6.879285		12.621378		-34.540390		2.860698		0.920673		3.430447		11.661749		-1.488905		44.033944		-18.129267		0.948497		58.834917		117.402644		0.588480		-2.475966		-34.547559		32.974913		-51.508954		13.215636		72.093197		125.532631		-5.301507		1.699741		-21.146130		
4.026515		2.197334		-15.128703		94.859463		0.000527		1.645748		1.100568		60.187179		-0.995822		-6.658413		-81.187994		-9.957499		7.769605		36.356368		61.347454		-9.824402		-2.791005		-84.027971		-3.696404		-6.670487		12.596885		-34.420267		2.892886		1.293265		3.278051		11.651617		-1.583569		41.969527		-19.089012		0.595512		57.549256		117.424210		0.618088		-2.145991		-34.599326		30.809674		-52.022051		13.900731		71.486190		125.617994		-4.998815		1.728939		-21.126218		
4.030530		2.093078		-14.650155		95.276336		-0.000136		1.641623		1.092775		59.368941		-1.346235		-6.878262		-79.512329		-10.012371		7.944670		36.266500		60.651970		-9.420808		-2.993897		-81.991624		-5.086829		-6.149090		12.689714		-34.790379		2.972060		1.005961		1.971934		12.096782		-2.149908		39.864393		-19.273355		-0.536096		56.648024		118.418347		0.869726		-1.963725		-35.269093		26.906192		-52.856176		12.102659		72.159818		126.567210		-4.187627		1.177527		-21.808171		
4.034545		2.058392		-14.222699		95.446611		-0.001293		1.637243		1.085097		58.610980		-1.579666		-7.023139		-77.777310		-10.042286		7.894806		36.023020		59.940550		-9.061321		-3.135175		-80.027998		-5.849960		-6.230791		13.171851		-35.277615		3.256364		0.181880		2.501073		11.786565		-1.376489		38.803069		-18.863547		-1.135676		55.111496		121.417287		2.521955		-1.863065		-36.586602		20.726699		-53.611779		7.104958		73.421566		129.021626		-1.632099		0.259652		-23.337797		
4.038561		2.030559		-13.952983		95.577563		-0.001733		1.631672		1.077070		58.037000		-1.672036		-7.132900		-76.170460		-10.181225		7.948819		35.991734		59.571715		-8.882294		-3.294338		-78.456132		-6.700870		-5.885712		13.144425		-35.176913		3.224393		0.597981		1.585234		12.187150		-2.010576		36.319917		-19.727030		-1.741296		54.341269		121.563800		2.468215		-1.488855		-36.802299		18.059169		-54.077570		7.197370		73.344955		129.111189		-1.402628		0.212322		-23.471060		
4.042576		2.180915		-13.611095		95.615057		-0.001783		1.626694		1.069160		57.250918		-1.508218		-7.297810		-74.256300		-10.437305		7.512475		35.851632		58.950945		-9.032741		-3.547414		-76.519094		-8.011653		-6.079896		13.166856		-35.551709		3.294928		0.888465		2.135329		12.855816		-2.693737		34.140612		-19.898927		-3.204728		53.943685		123.179486		3.041106		-0.793075		-37.137991		13.495906		-54.511642		4.588274		74.286229		130.060251		-0.878840		-0.341047		-23.913724		
4.046591		2.100062		-13.493549		95.676474		-0.002331		1.620766		1.061284		56.769193		-1.642044		-7.372989		-72.533293		-10.414773		7.676320		35.839340		58.533299		-8.716810		-3.619538		-74.784820		-8.281506		-5.943927		13.138393		-35.297228		3.292926		1.338811		1.758022		12.737553		-2.759254		31.772404		-20.853724		-3.372386		53.128678		123.361362		3.199396		-0.574698		-37.135817		11.126917		-55.016503		5.190255		73.900346		130.206009		-0.541208		-0.413403		-23.844107		
4.050606		2.170845		-13.258478		95.757390		-0.002689		1.615297		1.053555		56.070564		-1.592807		-7.546991		-70.610096		-10.458837		7.894876		35.792637		57.823045		-8.639746		-3.776844		-72.592217		-9.116724		-5.845987		13.029192		-35.364409		3.393473		1.805262		1.186471		12.921026		-3.254780		29.279589		-21.558651		-4.178431		52.882652		124.212168		3.533786		-0.439637		-37.107735		7.784391		-55.595270		4.562305		74.261261		130.758721		-0.479643		-0.813460		-23.946000		
4.054621		2.274671		-12.686001		95.809676		-0.002954		1.609755		1.045170		54.960928		-1.493772		-7.814036		-68.745556		-10.458963		8.122354		35.675723		56.915763		-8.713916		-3.949626		-70.866897		-10.249570		-5.946489		12.853693		-35.826546		3.513559		2.015305		1.269625		13.218844		-3.805347		26.823677		-21.689838		-5.615620		52.881774		126.348636		4.484039		-0.355533		-36.947529		2.947175		-55.941298		2.014776		75.077918		132.101652		-0.527785		-1.514509		-24.224638		
4.058636		2.234539		-11.936263		96.033643		-0.003653		1.604084		1.036933		53.685977		-1.693690		-8.162590		-67.015407		-10.408199		8.682946		35.339259		55.790680		-8.561572		-4.175585		-69.170910		-10.917044		-5.492078		12.476657		-36.542809		3.719975		1.049495		1.269137		13.051722		-2.944077		25.273004		-21.302097		-6.505895		52.674132		131.420092		6.990909		-0.953383		-36.572540		-4.744768		-55.978587		-3.908839		76.779707		135.050345		0.005452		-2.345527		-24.420041		
4.062652		2.207382		-11.776864		96.162307		-0.004482		1.597103		1.028835		53.089391		-1.842338		-8.315133		-65.332217		-10.570660		8.900255		35.279256		55.246434		-8.333833		-4.338013		-67.430707		-11.497689		-5.253259		12.349463		-36.225558		3.789267		1.473233		0.211292		13.152288		-3.122871		22.430044		-22.232430		-6.697775		52.519686		131.761901		7.009080		-1.142823		-36.723105		-7.852664		-56.485473		-3.923027		76.799131		135.296719		0.171131		-2.603568		-24.450319		
4.066667		2.202570		-11.579491		96.296150		-0.005092		1.590099		1.020623		52.420803		-1.961233		-8.518443		-63.629727		-10.797866		9.184255		35.240913		54.617676		-8.145069		-4.496599		-65.631936		-12.166672		-4.911184		12.234342		-35.995574		3.847139		2.006671		-0.441091		13.343679		-3.456280		19.446378		-23.060212		-7.151922		52.552071		132.080167		7.040347		-1.211879		-36.784908		-10.944704		-56.866187		-4.089625		76.839090		135.574335		0.064925		-2.807177		-24.589511		
4.070682		2.272950		-11.323000		96.334459		-0.005719		1.583253		1.012352		51.638510		-1.958218		-8.712595		-61.817319		-11.086908		9.312001		35.168803		53.878408		-8.008225		-4.489208		-63.794473		-12.809150		-4.451198		12.088398		-35.954986		3.928921		2.473867		-0.415804		13.619438		-3.793178		16.576454		-23.594688		-7.838319		52.744623		132.740366		7.196281		-1.261363		-36.775997		-14.767522		-56.975298		-5.157317		77.112682		136.148033		-0.251088		-3.061045		-24.895644		
4.074697		2.415781		-10.880419		96.434069		-0.006012		1.576289		1.003961		50.611776		-1.898904		-9.039326		-59.996785		-11.594997		9.313576		35.034762		52.965617		-7.999004		-4.498198		-62.001215		-13.442711		-3.807566		11.884677		-36.203360		4.053256		2.719983		0.138690		13.986109		-4.091351		13.697178		-23.872761		-8.683634		53.336488		133.974535		7.584907		-1.401823		-36.665356		-19.801073		-56.876236		-7.713922		77.833066		137.203708		-0.792594		-3.446721		-25.417874		
4.078712		2.363102		-10.608528		96.558075		-0.006742		1.568690		0.995642		49.790095		-2.140553		-9.378470		-58.322834		-12.387146		9.663494		34.985823		52.217419		-7.723400		-4.602321		-60.313206		-14.060854		-3.318331		11.784120		-35.925165		4.118756		3.133392		-1.191042		14.007549		-4.309004		10.374021		-24.702874		-8.702823		53.914823		134.319253		7.619402		-1.635079		-36.691054		-23.291600		-57.109515		-8.376352		77.900729		137.590911		-0.720514		-3.747525		-25.507787		
4.082727		2.644866		-9.982509		96.742829		-0.006638		1.561199		0.987114		48.559161		-1.907745		-9.780837		-56.543053		-13.074386		9.510430		34.806265		51.252083		-7.785885		-4.220387		-58.780658		-14.607029		-2.108372		11.654606		-36.364545		4.377948		3.055410		-0.580801		14.005438		-4.621972		7.496878		-24.744341		-9.097103		54.880461		135.000424		7.349779		-1.604469		-36.688287		-29.678763		-56.219064		-12.865210		78.970127		138.898130		-1.013851		-4.602479		-26.057889		
4.086742		2.540607		-9.720590		96.938602		-0.008164		1.553099		0.978717		47.738235		-2.351337		-10.225232		-54.956403		-13.655175		10.028696		34.736830		50.410669		-7.485887		-4.665138		-57.022402		-15.122605		-1.653668		11.580770		-35.981485		4.535543		3.233055		-2.045133		14.029942		-4.605282		4.208315		-25.710046		-8.632909		55.487403		135.055611		7.285946		-1.900399		-36.697977		-33.360674		-56.045843		-13.851438		78.961202		139.365915		-0.777143		-4.935290		-26.118685		
4.090758		2.566218		-9.539336		97.000253		-0.009236		1.544848		0.970136		47.002008		-2.459032		-10.468655		-53.281152		-13.874045		10.344240		34.676895		49.547667		-7.294471		-4.770124		-55.093488		-15.565204		-1.108003		11.538280		-35.615611		4.711035		3.491894		-2.479960		13.854921		-4.881676		1.145090		-26.182282		-8.675532		55.888735		134.794419		6.929503		-1.925327		-36.789932		-37.258246		-55.562686		-15.132619		78.886116		139.717138		-0.727355		-5.274736		-26.221538		
4.094773		2.495494		-8.995176		97.301263		-0.010347		1.536245		0.961565		45.937346		-2.747922		-10.839293		-51.845764		-14.281853		10.766142		34.565410		48.565861		-7.112919		-5.179138		-53.654525		-16.118499		-0.285213		11.522909		-35.644975		4.847753		3.397119		-3.171308		13.799885		-5.181120		-2.317666		-26.787945		-8.339267		57.063831		134.169151		6.287603		-2.087206		-36.890029		-42.296739		-54.719031		-18.018030		79.500437		140.294818		-0.806403		-5.910333		-26.425222		
4.098788		2.405309		-8.534271		97.431896		-0.011208		1.527436		0.952854		44.967841		-2.885721		-11.011470		-50.388401		-14.517881		11.141688		34.467742		47.505621		-6.907552		-5.427922		-51.998433		-16.667579		0.232880		11.517438		-35.542874		4.876916		3.344637		-3.876868		13.651882		-5.390031		-5.485703		-27.190715		-8.023144		57.810465		133.219017		5.623051		-2.175065		-36.950859		-47.024921		-53.869763		-20.388950		79.819706		140.710580		-0.808000		-6.368748		-26.516450		
4.102803		2.396053		-8.304596		97.605708		-0.012793		1.518505		0.944049		44.185388		-3.046439		-11.220969		-48.836045		-14.585438		11.346146		34.398209		46.524241		-6.715613		-5.911946		-50.088116		-17.042194		0.558827		11.504884		-35.137817		5.077143		3.423578		-4.356773		13.637624		-5.483556		-8.520840		-27.732760		-7.650739		58.172135		132.518417		5.218293		-2.249705		-36.961362		-50.885465		-52.959641		-21.834496		79.767904		140.999914		-0.738561		-6.657578		-26.548472		
4.106818		2.277707		-7.865860		97.802379		-0.014174		1.508990		0.935364		43.253792		-3.325759		-11.539432		-47.501816		-14.925142		11.651128		34.347311		45.600717		-6.478488		-6.345894		-48.713971		-17.721064		0.853551		11.453824		-34.870425		5.177298		3.589412		-5.750861		13.398907		-5.815670		-12.328477		-28.275113		-7.606249		59.384636		131.744939		4.600109		-2.657003		-37.079223		-54.967486		-52.243193		-23.470508		79.992506		141.116649		-1.030855		-6.936407		-26.680898		
4.110833		2.307198		-7.676274		97.896370		-0.015311		1.499438		0.926502		42.500440		-3.359800		-11.780102		-45.937566		-15.080770		11.786777		34.315128		44.722008		-6.347227		-6.680797		-46.960559		-18.170020		1.035121		11.396716		-34.361691		5.352841		3.769075		-6.415737		13.236466		-6.087823		-15.567352		-28.592536		-7.557664		60.014921		131.159275		4.227955		-2.905471		-37.139172		-58.532117		-51.437492		-24.447560		79.623971		141.188048		-1.152604		-7.050082		-26.736480		
4.114848		2.334138		-7.427416		97.991848		-0.016279		1.489649		0.917702		41.674841		-3.404511		-12.112311		-44.382452		-15.292279		11.863443		34.281658		43.829555		-6.257458		-7.049934		-45.306528		-18.661141		1.231855		11.326832		-33.908236		5.501019		3.951789		-7.158247		13.031588		-6.382598		-18.899784		-28.871603		-7.491357		60.768797		130.481672		3.819804		-3.206978		-37.194828		-62.197777		-50.527076		-25.675281		79.380314		141.226805		-1.388674		-7.178190		-26.825722		
4.118864		2.326659		-6.613034		98.078153		-0.016590		1.480285		0.908837		40.210636		-3.335460		-12.428571		-42.796246		-15.622385		11.479350		34.157198		42.425559		-6.320513		-7.447469		-43.863693		-19.157084		1.653009		11.204451		-34.140767		5.453604		3.868668		-7.585580		13.204294		-6.553934		-21.734801		-29.149091		-6.723156		61.276639		128.251745		2.965231		-3.403171		-36.956080		-66.867288		-48.948970		-28.276048		79.853220		141.384471		-1.729118		-7.587372		-26.889564		
